<svg xmlns="http://www.w3.org/2000/svg" xmlns:xlink="http://www.w3.org/1999/xlink" width="500" zoomAndPan="magnify" viewBox="0 0 375 374.999991" height="500" preserveAspectRatio="xMidYMid meet" version="1.0"><defs><g/><clipPath id="d882ea47f8"><path d="M 86.800781 75.96875 L 288.550781 75.96875 L 288.550781 277.71875 L 86.800781 277.71875 Z M 86.800781 75.96875 " clip-rule="nonzero"/></clipPath><clipPath id="fd33ac5585"><path d="M 74.132812 54 L 300.632812 54 L 300.632812 289.289062 L 74.132812 289.289062 Z M 74.132812 54 " clip-rule="nonzero"/></clipPath><clipPath id="97f501c3b2"><path d="M 153 30.539062 L 222 30.539062 L 222 53 L 153 53 Z M 153 30.539062 " clip-rule="nonzero"/></clipPath><clipPath id="f682f94983"><path d="M 147 306.289062 L 164.726562 306.289062 L 164.726562 324 L 147 324 Z M 147 306.289062 " clip-rule="nonzero"/></clipPath><clipPath id="c9dd967a04"><path d="M 145.960938 304 L 165.773438 304 L 165.773438 324.902344 L 145.960938 324.902344 Z M 145.960938 304 " clip-rule="nonzero"/></clipPath><clipPath id="551e98705e"><path d="M 152 302.3125 L 159 302.3125 L 159 305 L 152 305 Z M 152 302.3125 " clip-rule="nonzero"/></clipPath></defs><g clip-path="url(#d882ea47f8)"><path fill="#f51039" d="M 187.5 75.96875 C 215.300781 75.96875 240.476562 87.242188 258.699219 105.46875 C 276.925781 123.691406 288.199219 148.867188 288.199219 176.667969 C 288.199219 204.472656 276.925781 229.644531 258.699219 247.871094 C 240.476562 266.097656 215.300781 277.371094 187.5 277.371094 C 159.699219 277.371094 134.523438 266.097656 116.296875 247.871094 C 98.074219 229.644531 86.800781 204.472656 86.800781 176.667969 C 86.800781 148.867188 98.074219 123.691406 116.296875 105.46875 C 134.523438 87.242188 159.699219 75.96875 187.5 75.96875 Z M 242.6875 121.480469 C 228.5625 107.355469 209.050781 98.617188 187.5 98.617188 C 165.949219 98.617188 146.4375 107.355469 132.3125 121.480469 C 118.1875 135.605469 109.449219 155.121094 109.449219 176.667969 C 109.449219 198.21875 118.1875 217.734375 132.3125 231.859375 C 146.4375 245.984375 165.949219 254.722656 187.5 254.722656 C 209.050781 254.722656 228.5625 245.984375 242.6875 231.859375 C 256.8125 217.734375 265.550781 198.21875 265.550781 176.667969 C 265.550781 155.121094 256.8125 135.605469 242.6875 121.480469 Z M 187.5 151.664062 C 201.304688 151.664062 212.503906 162.863281 212.503906 176.667969 C 212.503906 190.476562 201.304688 201.675781 187.5 201.675781 C 173.691406 201.675781 162.496094 190.476562 162.496094 176.667969 C 162.496094 162.863281 173.691406 151.664062 187.5 151.664062 Z M 187.5 113.71875 C 204.878906 113.71875 220.617188 120.765625 232.007812 132.160156 C 243.402344 143.554688 250.453125 159.289062 250.453125 176.667969 C 250.453125 194.050781 243.402344 209.789062 232.007812 221.179688 C 220.617188 232.574219 204.878906 239.621094 187.5 239.621094 C 170.121094 239.621094 154.382812 232.574219 142.988281 221.179688 C 131.597656 209.789062 124.546875 194.050781 124.546875 176.667969 C 124.546875 159.289062 131.597656 143.554688 142.988281 132.160156 C 154.382812 120.765625 170.121094 113.71875 187.5 113.71875 Z M 215.996094 148.171875 C 208.703125 140.878906 198.628906 136.367188 187.5 136.367188 C 176.371094 136.367188 166.296875 140.878906 159.003906 148.171875 C 151.710938 155.464844 147.199219 165.542969 147.199219 176.667969 C 147.199219 187.796875 151.710938 197.875 159.003906 205.164062 C 166.296875 212.460938 176.371094 216.972656 187.5 216.972656 C 198.628906 216.972656 208.703125 212.460938 215.996094 205.164062 C 223.289062 197.875 227.800781 187.796875 227.800781 176.667969 C 227.800781 165.542969 223.289062 155.464844 215.996094 148.171875 Z M 215.996094 148.171875 " fill-opacity="1" fill-rule="nonzero"/></g><g clip-path="url(#fd33ac5585)"><path fill="#ffffff" d="M 263.578125 93.34375 L 268.601562 86.167969 C 270.039062 84.371094 269.320312 81.5 267.527344 80.066406 L 248.148438 66.785156 C 246.351562 65.351562 243.480469 66.070312 242.046875 67.863281 L 237.019531 75.039062 C 228.40625 70.734375 218.71875 67.503906 209.027344 65.710938 L 209.027344 54.941406 L 165.960938 54.941406 L 165.960938 65.710938 C 113.925781 75.757812 74.449219 121.695312 74.449219 176.605469 C 74.449219 239.050781 125.050781 289.652344 187.496094 289.652344 C 249.941406 289.652344 300.542969 239.050781 300.542969 176.605469 C 300.542969 143.945312 286.1875 114.160156 263.578125 93.34375 Z M 187.496094 275.65625 C 132.945312 275.65625 88.445312 231.511719 88.445312 176.605469 C 88.445312 122.054688 132.585938 77.554688 187.496094 77.554688 C 242.40625 77.554688 286.546875 121.695312 286.546875 176.605469 C 286.546875 231.511719 242.046875 275.65625 187.496094 275.65625 Z M 187.496094 275.65625 " fill-opacity="1" fill-rule="nonzero"/></g><path fill="#ffffff" d="M 187.136719 84.011719 L 188.929688 84.011719 L 188.929688 99.804688 L 187.136719 99.804688 Z M 187.136719 84.011719 " fill-opacity="1" fill-rule="nonzero"/><path fill="#ffffff" d="M 140.605469 97.046875 L 142.15625 96.148438 L 150.054688 109.824219 L 148.5 110.722656 Z M 140.605469 97.046875 " fill-opacity="1" fill-rule="nonzero"/><path fill="#ffffff" d="M 106.84375 131.25 L 107.738281 129.695312 L 121.414062 137.589844 L 120.515625 139.144531 Z M 106.84375 131.25 " fill-opacity="1" fill-rule="nonzero"/><path fill="#ffffff" d="M 94.902344 175.527344 L 110.695312 175.527344 L 110.695312 177.320312 L 94.902344 177.320312 Z M 94.902344 175.527344 " fill-opacity="1" fill-rule="nonzero"/><path fill="#ffffff" d="M 106.675781 222.332031 L 120.351562 214.4375 L 121.25 215.992188 L 107.574219 223.886719 Z M 106.675781 222.332031 " fill-opacity="1" fill-rule="nonzero"/><path fill="#ffffff" d="M 139.960938 256.316406 L 147.859375 242.640625 L 149.410156 243.539062 L 141.515625 257.210938 Z M 139.960938 256.316406 " fill-opacity="1" fill-rule="nonzero"/><path fill="#ffffff" d="M 186.417969 253.765625 L 188.214844 253.765625 L 188.214844 269.554688 L 186.417969 269.554688 Z M 186.417969 253.765625 " fill-opacity="1" fill-rule="nonzero"/><path fill="#ffffff" d="M 224.960938 244.140625 L 226.511719 243.242188 L 234.410156 256.917969 L 232.855469 257.816406 Z M 224.960938 244.140625 " fill-opacity="1" fill-rule="nonzero"/><path fill="#ffffff" d="M 253.730469 216.4375 L 254.628906 214.882812 L 268.304688 222.777344 L 267.40625 224.332031 Z M 253.730469 216.4375 " fill-opacity="1" fill-rule="nonzero"/><path fill="#ffffff" d="M 264.296875 176.246094 L 280.085938 176.246094 L 280.085938 178.039062 L 264.296875 178.039062 Z M 264.296875 176.246094 " fill-opacity="1" fill-rule="nonzero"/><path fill="#ffffff" d="M 253.769531 137.972656 L 267.445312 130.078125 L 268.34375 131.632812 L 254.667969 139.527344 Z M 253.769531 137.972656 " fill-opacity="1" fill-rule="nonzero"/><path fill="#ffffff" d="M 225.441406 109.964844 L 233.335938 96.292969 L 234.890625 97.1875 L 226.992188 110.863281 Z M 225.441406 109.964844 " fill-opacity="1" fill-rule="nonzero"/><path fill="#ffffff" d="M 190.007812 165.121094 L 190.007812 134.257812 L 195.390625 134.257812 L 187.496094 120.261719 L 179.601562 134.257812 L 184.984375 134.257812 L 184.984375 165.121094 C 179.601562 166.195312 175.652344 171.222656 175.652344 176.605469 C 175.652344 183.0625 181.035156 188.449219 187.496094 188.449219 C 193.957031 188.449219 199.339844 183.0625 199.339844 176.605469 C 199.339844 171.222656 195.390625 166.554688 190.007812 165.121094 Z M 190.007812 165.121094 " fill-opacity="1" fill-rule="nonzero"/><g clip-path="url(#97f501c3b2)"><path fill="#ffffff" d="M 157.347656 52.429688 L 217.28125 52.429688 C 219.792969 52.429688 221.589844 50.636719 221.589844 48.125 L 221.589844 34.847656 C 221.589844 32.332031 219.792969 30.539062 217.28125 30.539062 L 157.347656 30.539062 C 154.835938 30.539062 153.042969 32.332031 153.042969 34.847656 L 153.042969 48.125 C 153.042969 50.636719 155.195312 52.429688 157.347656 52.429688 Z M 157.347656 52.429688 " fill-opacity="1" fill-rule="nonzero"/></g><g fill="#ffffff" fill-opacity="1"><g transform="translate(119.326362, 344.654191)"><g><path d="M 3.375 -9.609375 C 4.039062 -9.609375 4.578125 -9.363281 4.984375 -8.875 C 5.398438 -8.382812 5.609375 -7.742188 5.609375 -6.953125 C 5.609375 -6.160156 5.40625 -5.523438 5 -5.046875 C 4.601562 -4.566406 4.070312 -4.328125 3.40625 -4.328125 L 2 -4.328125 C 1.96875 -4.328125 1.953125 -4.3125 1.953125 -4.28125 L 1.953125 -0.140625 C 1.953125 -0.046875 1.90625 0 1.8125 0 L 1.109375 0 C 1.015625 0 0.96875 -0.046875 0.96875 -0.140625 L 0.96875 -9.46875 C 0.96875 -9.5625 1.015625 -9.609375 1.109375 -9.609375 Z M 3.25 -5.125 C 3.65625 -5.125 3.984375 -5.285156 4.234375 -5.609375 C 4.492188 -5.941406 4.625 -6.382812 4.625 -6.9375 C 4.625 -7.476562 4.492188 -7.914062 4.234375 -8.25 C 3.984375 -8.582031 3.65625 -8.75 3.25 -8.75 L 2 -8.75 C 1.96875 -8.75 1.953125 -8.734375 1.953125 -8.703125 L 1.953125 -5.1875 C 1.953125 -5.144531 1.96875 -5.125 2 -5.125 Z M 3.25 -5.125 "/></g></g></g><g fill="#ffffff" fill-opacity="1"><g transform="translate(125.381087, 344.654191)"><g><path d="M 3.109375 0.109375 C 2.410156 0.109375 1.84375 -0.109375 1.40625 -0.546875 C 0.96875 -0.984375 0.75 -1.5625 0.75 -2.28125 L 0.75 -7.296875 C 0.75 -8.023438 0.96875 -8.609375 1.40625 -9.046875 C 1.84375 -9.484375 2.410156 -9.703125 3.109375 -9.703125 C 3.816406 -9.703125 4.390625 -9.484375 4.828125 -9.046875 C 5.273438 -8.609375 5.5 -8.023438 5.5 -7.296875 L 5.5 -2.28125 C 5.5 -1.570312 5.273438 -0.992188 4.828125 -0.546875 C 4.390625 -0.109375 3.816406 0.109375 3.109375 0.109375 Z M 3.109375 -0.734375 C 3.523438 -0.734375 3.863281 -0.875 4.125 -1.15625 C 4.382812 -1.4375 4.515625 -1.796875 4.515625 -2.234375 L 4.515625 -7.34375 C 4.515625 -7.789062 4.382812 -8.15625 4.125 -8.4375 C 3.863281 -8.71875 3.523438 -8.859375 3.109375 -8.859375 C 2.703125 -8.859375 2.367188 -8.71875 2.109375 -8.4375 C 1.859375 -8.15625 1.734375 -7.789062 1.734375 -7.34375 L 1.734375 -2.234375 C 1.734375 -1.796875 1.859375 -1.4375 2.109375 -1.15625 C 2.367188 -0.875 2.703125 -0.734375 3.109375 -0.734375 Z M 3.109375 -0.734375 "/></g></g></g><g fill="#ffffff" fill-opacity="1"><g transform="translate(131.627589, 344.654191)"><g><path d="M 5.171875 -9.5 C 5.191406 -9.5625 5.242188 -9.59375 5.328125 -9.59375 L 6.046875 -9.59375 C 6.140625 -9.59375 6.1875 -9.546875 6.1875 -9.453125 L 6.1875 -0.140625 C 6.1875 -0.046875 6.140625 0 6.046875 0 L 5.34375 0 C 5.25 0 5.203125 -0.046875 5.203125 -0.140625 L 5.203125 -7.484375 C 5.203125 -7.503906 5.195312 -7.515625 5.1875 -7.515625 C 5.175781 -7.515625 5.160156 -7.507812 5.140625 -7.5 L 3.71875 -4.53125 C 3.6875 -4.46875 3.640625 -4.4375 3.578125 -4.4375 C 3.503906 -4.4375 3.453125 -4.46875 3.421875 -4.53125 L 2 -7.484375 C 1.976562 -7.503906 1.960938 -7.515625 1.953125 -7.515625 C 1.941406 -7.515625 1.9375 -7.5 1.9375 -7.46875 L 1.9375 -0.140625 C 1.9375 -0.046875 1.890625 0 1.796875 0 L 1.09375 0 C 1 0 0.953125 -0.046875 0.953125 -0.140625 L 0.953125 -9.453125 C 0.953125 -9.546875 1 -9.59375 1.09375 -9.59375 L 1.8125 -9.59375 C 1.894531 -9.59375 1.945312 -9.5625 1.96875 -9.5 L 3.53125 -6.328125 C 3.539062 -6.304688 3.554688 -6.296875 3.578125 -6.296875 C 3.597656 -6.296875 3.613281 -6.304688 3.625 -6.328125 Z M 5.171875 -9.5 "/></g></g></g><g fill="#ffffff" fill-opacity="1"><g transform="translate(138.764484, 344.654191)"><g><path d="M 3.109375 0.109375 C 2.410156 0.109375 1.84375 -0.109375 1.40625 -0.546875 C 0.96875 -0.984375 0.75 -1.5625 0.75 -2.28125 L 0.75 -7.296875 C 0.75 -8.023438 0.96875 -8.609375 1.40625 -9.046875 C 1.84375 -9.484375 2.410156 -9.703125 3.109375 -9.703125 C 3.816406 -9.703125 4.390625 -9.484375 4.828125 -9.046875 C 5.273438 -8.609375 5.5 -8.023438 5.5 -7.296875 L 5.5 -2.28125 C 5.5 -1.570312 5.273438 -0.992188 4.828125 -0.546875 C 4.390625 -0.109375 3.816406 0.109375 3.109375 0.109375 Z M 3.109375 -0.734375 C 3.523438 -0.734375 3.863281 -0.875 4.125 -1.15625 C 4.382812 -1.4375 4.515625 -1.796875 4.515625 -2.234375 L 4.515625 -7.34375 C 4.515625 -7.789062 4.382812 -8.15625 4.125 -8.4375 C 3.863281 -8.71875 3.523438 -8.859375 3.109375 -8.859375 C 2.703125 -8.859375 2.367188 -8.71875 2.109375 -8.4375 C 1.859375 -8.15625 1.734375 -7.789062 1.734375 -7.34375 L 1.734375 -2.234375 C 1.734375 -1.796875 1.859375 -1.4375 2.109375 -1.15625 C 2.367188 -0.875 2.703125 -0.734375 3.109375 -0.734375 Z M 3.109375 -0.734375 "/></g></g></g><g fill="#ffffff" fill-opacity="1"><g transform="translate(145.010986, 344.654191)"><g><path d="M 1.125 0 C 1.03125 0 0.984375 -0.046875 0.984375 -0.140625 L 0.984375 -9.453125 C 0.984375 -9.546875 1.03125 -9.59375 1.125 -9.59375 L 3.234375 -9.59375 C 3.941406 -9.59375 4.503906 -9.359375 4.921875 -8.890625 C 5.335938 -8.429688 5.546875 -7.816406 5.546875 -7.046875 L 5.546875 -2.546875 C 5.546875 -1.773438 5.335938 -1.15625 4.921875 -0.6875 C 4.503906 -0.226562 3.941406 0 3.234375 0 Z M 1.953125 -0.90625 C 1.953125 -0.863281 1.972656 -0.84375 2.015625 -0.84375 L 3.21875 -0.859375 C 3.625 -0.859375 3.945312 -1.015625 4.1875 -1.328125 C 4.425781 -1.640625 4.550781 -2.0625 4.5625 -2.59375 L 4.5625 -7 C 4.5625 -7.539062 4.441406 -7.96875 4.203125 -8.28125 C 3.960938 -8.59375 3.632812 -8.75 3.21875 -8.75 L 2.015625 -8.75 C 1.972656 -8.75 1.953125 -8.726562 1.953125 -8.6875 Z M 1.953125 -0.90625 "/></g></g></g><g fill="#ffffff" fill-opacity="1"><g transform="translate(151.380772, 344.654191)"><g><path d="M 3.109375 0.109375 C 2.410156 0.109375 1.84375 -0.109375 1.40625 -0.546875 C 0.96875 -0.984375 0.75 -1.5625 0.75 -2.28125 L 0.75 -7.296875 C 0.75 -8.023438 0.96875 -8.609375 1.40625 -9.046875 C 1.84375 -9.484375 2.410156 -9.703125 3.109375 -9.703125 C 3.816406 -9.703125 4.390625 -9.484375 4.828125 -9.046875 C 5.273438 -8.609375 5.5 -8.023438 5.5 -7.296875 L 5.5 -2.28125 C 5.5 -1.570312 5.273438 -0.992188 4.828125 -0.546875 C 4.390625 -0.109375 3.816406 0.109375 3.109375 0.109375 Z M 3.109375 -0.734375 C 3.523438 -0.734375 3.863281 -0.875 4.125 -1.15625 C 4.382812 -1.4375 4.515625 -1.796875 4.515625 -2.234375 L 4.515625 -7.34375 C 4.515625 -7.789062 4.382812 -8.15625 4.125 -8.4375 C 3.863281 -8.71875 3.523438 -8.859375 3.109375 -8.859375 C 2.703125 -8.859375 2.367188 -8.71875 2.109375 -8.4375 C 1.859375 -8.15625 1.734375 -7.789062 1.734375 -7.34375 L 1.734375 -2.234375 C 1.734375 -1.796875 1.859375 -1.4375 2.109375 -1.15625 C 2.367188 -0.875 2.703125 -0.734375 3.109375 -0.734375 Z M 3.109375 -0.734375 "/></g></g></g><g fill="#ffffff" fill-opacity="1"><g transform="translate(157.627274, 344.654191)"><g><path d="M 4.828125 0 C 4.742188 0 4.6875 -0.0351562 4.65625 -0.109375 L 3.265625 -4.34375 C 3.253906 -4.375 3.234375 -4.390625 3.203125 -4.390625 L 2.015625 -4.390625 C 1.972656 -4.390625 1.953125 -4.367188 1.953125 -4.328125 L 1.953125 -0.140625 C 1.953125 -0.046875 1.910156 0 1.828125 0 L 1.125 0 C 1.03125 0 0.984375 -0.046875 0.984375 -0.140625 L 0.984375 -9.453125 C 0.984375 -9.546875 1.03125 -9.59375 1.125 -9.59375 L 3.390625 -9.59375 C 4.054688 -9.59375 4.59375 -9.347656 5 -8.859375 C 5.414062 -8.367188 5.625 -7.734375 5.625 -6.953125 C 5.625 -6.359375 5.492188 -5.84375 5.234375 -5.40625 C 4.972656 -4.976562 4.625 -4.679688 4.1875 -4.515625 C 4.15625 -4.503906 4.144531 -4.476562 4.15625 -4.4375 L 5.640625 -0.15625 L 5.65625 -0.09375 C 5.65625 -0.03125 5.613281 0 5.53125 0 Z M 2.015625 -8.75 C 1.972656 -8.75 1.953125 -8.726562 1.953125 -8.6875 L 1.953125 -5.21875 C 1.953125 -5.1875 1.972656 -5.171875 2.015625 -5.171875 L 3.25 -5.171875 C 3.664062 -5.171875 4 -5.332031 4.25 -5.65625 C 4.507812 -5.976562 4.640625 -6.410156 4.640625 -6.953125 C 4.640625 -7.484375 4.507812 -7.914062 4.25 -8.25 C 4 -8.582031 3.664062 -8.75 3.25 -8.75 Z M 2.015625 -8.75 "/></g></g></g><g fill="#ffffff" fill-opacity="1"><g transform="translate(163.69569, 344.654191)"><g><path d="M 3.109375 0.109375 C 2.410156 0.109375 1.84375 -0.109375 1.40625 -0.546875 C 0.96875 -0.984375 0.75 -1.5625 0.75 -2.28125 L 0.75 -7.296875 C 0.75 -8.023438 0.96875 -8.609375 1.40625 -9.046875 C 1.84375 -9.484375 2.410156 -9.703125 3.109375 -9.703125 C 3.816406 -9.703125 4.390625 -9.484375 4.828125 -9.046875 C 5.273438 -8.609375 5.5 -8.023438 5.5 -7.296875 L 5.5 -2.28125 C 5.5 -1.570312 5.273438 -0.992188 4.828125 -0.546875 C 4.390625 -0.109375 3.816406 0.109375 3.109375 0.109375 Z M 3.109375 -0.734375 C 3.523438 -0.734375 3.863281 -0.875 4.125 -1.15625 C 4.382812 -1.4375 4.515625 -1.796875 4.515625 -2.234375 L 4.515625 -7.34375 C 4.515625 -7.789062 4.382812 -8.15625 4.125 -8.4375 C 3.863281 -8.71875 3.523438 -8.859375 3.109375 -8.859375 C 2.703125 -8.859375 2.367188 -8.71875 2.109375 -8.4375 C 1.859375 -8.15625 1.734375 -7.789062 1.734375 -7.34375 L 1.734375 -2.234375 C 1.734375 -1.796875 1.859375 -1.4375 2.109375 -1.15625 C 2.367188 -0.875 2.703125 -0.734375 3.109375 -0.734375 Z M 3.109375 -0.734375 "/></g></g></g><g fill="#ffffff" fill-opacity="1"><g transform="translate(169.942193, 344.654191)"><g/></g></g><g fill="#ffffff" fill-opacity="1"><g transform="translate(172.681889, 344.654191)"><g><path d="M 5.1875 -9.59375 C 5.28125 -9.59375 5.328125 -9.546875 5.328125 -9.453125 L 5.328125 -8.875 C 5.328125 -8.789062 5.28125 -8.75 5.1875 -8.75 L 3.390625 -8.75 C 3.347656 -8.75 3.328125 -8.726562 3.328125 -8.6875 L 3.328125 -0.140625 C 3.328125 -0.046875 3.28125 0 3.1875 0 L 2.5 0 C 2.40625 0 2.359375 -0.046875 2.359375 -0.140625 L 2.359375 -8.6875 C 2.359375 -8.726562 2.335938 -8.75 2.296875 -8.75 L 0.609375 -8.75 C 0.515625 -8.75 0.46875 -8.789062 0.46875 -8.875 L 0.46875 -9.453125 C 0.46875 -9.546875 0.515625 -9.59375 0.609375 -9.59375 Z M 5.1875 -9.59375 "/></g></g></g><g fill="#ffffff" fill-opacity="1"><g transform="translate(178.476344, 344.654191)"><g><path d="M 5.328125 -8.875 C 5.328125 -8.789062 5.28125 -8.75 5.1875 -8.75 L 2.015625 -8.75 C 1.972656 -8.75 1.953125 -8.726562 1.953125 -8.6875 L 1.953125 -5.296875 C 1.953125 -5.253906 1.972656 -5.234375 2.015625 -5.234375 L 4.015625 -5.234375 C 4.109375 -5.234375 4.15625 -5.1875 4.15625 -5.09375 L 4.15625 -4.515625 C 4.15625 -4.421875 4.109375 -4.375 4.015625 -4.375 L 2.015625 -4.375 C 1.972656 -4.375 1.953125 -4.351562 1.953125 -4.3125 L 1.953125 -0.90625 C 1.953125 -0.863281 1.972656 -0.84375 2.015625 -0.84375 L 5.1875 -0.84375 C 5.28125 -0.84375 5.328125 -0.800781 5.328125 -0.71875 L 5.328125 -0.140625 C 5.328125 -0.046875 5.28125 0 5.1875 0 L 1.125 0 C 1.03125 0 0.984375 -0.046875 0.984375 -0.140625 L 0.984375 -9.453125 C 0.984375 -9.546875 1.03125 -9.59375 1.125 -9.59375 L 5.1875 -9.59375 C 5.28125 -9.59375 5.328125 -9.546875 5.328125 -9.453125 Z M 5.328125 -8.875 "/></g></g></g><g fill="#ffffff" fill-opacity="1"><g transform="translate(184.352982, 344.654191)"><g><path d="M 3.078125 0.109375 C 2.378906 0.109375 1.816406 -0.101562 1.390625 -0.53125 C 0.960938 -0.957031 0.75 -1.535156 0.75 -2.265625 L 0.75 -7.34375 C 0.75 -8.050781 0.960938 -8.617188 1.390625 -9.046875 C 1.816406 -9.484375 2.378906 -9.703125 3.078125 -9.703125 C 3.796875 -9.703125 4.363281 -9.488281 4.78125 -9.0625 C 5.207031 -8.632812 5.421875 -8.0625 5.421875 -7.34375 L 5.421875 -7.109375 C 5.421875 -7.015625 5.378906 -6.96875 5.296875 -6.96875 L 4.578125 -6.9375 C 4.484375 -6.9375 4.4375 -6.984375 4.4375 -7.078125 L 4.4375 -7.40625 C 4.4375 -7.84375 4.3125 -8.191406 4.0625 -8.453125 C 3.820312 -8.722656 3.492188 -8.859375 3.078125 -8.859375 C 2.679688 -8.859375 2.359375 -8.722656 2.109375 -8.453125 C 1.859375 -8.191406 1.734375 -7.84375 1.734375 -7.40625 L 1.734375 -2.171875 C 1.734375 -1.742188 1.859375 -1.394531 2.109375 -1.125 C 2.359375 -0.863281 2.679688 -0.734375 3.078125 -0.734375 C 3.492188 -0.734375 3.820312 -0.863281 4.0625 -1.125 C 4.3125 -1.394531 4.4375 -1.742188 4.4375 -2.171875 L 4.4375 -2.515625 C 4.4375 -2.609375 4.484375 -2.65625 4.578125 -2.65625 L 5.296875 -2.625 C 5.378906 -2.625 5.421875 -2.578125 5.421875 -2.484375 L 5.421875 -2.265625 C 5.421875 -1.535156 5.207031 -0.957031 4.78125 -0.53125 C 4.351562 -0.101562 3.785156 0.109375 3.078125 0.109375 Z M 3.078125 0.109375 "/></g></g></g><g fill="#ffffff" fill-opacity="1"><g transform="translate(190.462497, 344.654191)"><g><path d="M 4.515625 -9.453125 C 4.515625 -9.546875 4.554688 -9.59375 4.640625 -9.59375 L 5.34375 -9.59375 C 5.4375 -9.59375 5.484375 -9.546875 5.484375 -9.453125 L 5.484375 -0.140625 C 5.484375 -0.046875 5.4375 0 5.34375 0 L 4.640625 0 C 4.554688 0 4.515625 -0.046875 4.515625 -0.140625 L 4.515625 -4.3125 C 4.515625 -4.351562 4.492188 -4.375 4.453125 -4.375 L 2.015625 -4.375 C 1.972656 -4.375 1.953125 -4.351562 1.953125 -4.3125 L 1.953125 -0.140625 C 1.953125 -0.046875 1.910156 0 1.828125 0 L 1.125 0 C 1.03125 0 0.984375 -0.046875 0.984375 -0.140625 L 0.984375 -9.453125 C 0.984375 -9.546875 1.03125 -9.59375 1.125 -9.59375 L 1.828125 -9.59375 C 1.910156 -9.59375 1.953125 -9.546875 1.953125 -9.453125 L 1.953125 -5.296875 C 1.953125 -5.253906 1.972656 -5.234375 2.015625 -5.234375 L 4.453125 -5.234375 C 4.492188 -5.234375 4.515625 -5.253906 4.515625 -5.296875 Z M 4.515625 -9.453125 "/></g></g></g><g fill="#ffffff" fill-opacity="1"><g transform="translate(196.928172, 344.654191)"><g><path d="M 4.828125 -9.453125 C 4.828125 -9.546875 4.867188 -9.59375 4.953125 -9.59375 L 5.640625 -9.59375 C 5.734375 -9.59375 5.78125 -9.546875 5.78125 -9.453125 L 5.78125 -0.140625 C 5.78125 -0.046875 5.734375 0 5.640625 0 L 4.84375 0 C 4.769531 0 4.71875 -0.0351562 4.6875 -0.109375 L 2.015625 -7.1875 C 2.003906 -7.21875 1.988281 -7.226562 1.96875 -7.21875 C 1.957031 -7.21875 1.953125 -7.207031 1.953125 -7.1875 L 1.953125 -0.140625 C 1.953125 -0.046875 1.910156 0 1.828125 0 L 1.125 0 C 1.03125 0 0.984375 -0.046875 0.984375 -0.140625 L 0.984375 -9.453125 C 0.984375 -9.546875 1.03125 -9.59375 1.125 -9.59375 L 1.921875 -9.59375 C 1.992188 -9.59375 2.039062 -9.554688 2.0625 -9.484375 L 4.75 -2.390625 C 4.757812 -2.359375 4.773438 -2.34375 4.796875 -2.34375 C 4.816406 -2.351562 4.828125 -2.367188 4.828125 -2.390625 Z M 4.828125 -9.453125 "/></g></g></g><g fill="#ffffff" fill-opacity="1"><g transform="translate(203.681512, 344.654191)"><g><path d="M 1.125 0 C 1.03125 0 0.984375 -0.046875 0.984375 -0.140625 L 0.984375 -9.453125 C 0.984375 -9.546875 1.03125 -9.59375 1.125 -9.59375 L 1.828125 -9.59375 C 1.910156 -9.59375 1.953125 -9.546875 1.953125 -9.453125 L 1.953125 -0.140625 C 1.953125 -0.046875 1.910156 0 1.828125 0 Z M 1.125 0 "/></g></g></g><g fill="#ffffff" fill-opacity="1"><g transform="translate(206.626677, 344.654191)"><g><path d="M 3.046875 -9.703125 C 3.722656 -9.703125 4.269531 -9.476562 4.6875 -9.03125 C 5.101562 -8.582031 5.3125 -7.992188 5.3125 -7.265625 L 5.3125 -2.328125 C 5.3125 -1.703125 5.15625 -1.175781 4.84375 -0.75 C 4.53125 -0.320312 4.109375 -0.0507812 3.578125 0.0625 C 3.535156 0.0625 3.515625 0.0820312 3.515625 0.125 L 3.515625 1.4375 C 3.515625 1.53125 3.472656 1.578125 3.390625 1.578125 L 2.6875 1.578125 C 2.59375 1.578125 2.546875 1.53125 2.546875 1.4375 L 2.546875 0.125 C 2.546875 0.0820312 2.53125 0.0625 2.5 0.0625 C 1.96875 -0.0625 1.539062 -0.332031 1.21875 -0.75 C 0.90625 -1.175781 0.75 -1.703125 0.75 -2.328125 L 0.75 -7.265625 C 0.75 -7.984375 0.960938 -8.566406 1.390625 -9.015625 C 1.816406 -9.472656 2.367188 -9.703125 3.046875 -9.703125 Z M 4.34375 -7.359375 C 4.34375 -7.796875 4.222656 -8.15625 3.984375 -8.4375 C 3.742188 -8.71875 3.429688 -8.859375 3.046875 -8.859375 C 2.648438 -8.859375 2.332031 -8.71875 2.09375 -8.4375 C 1.851562 -8.15625 1.734375 -7.796875 1.734375 -7.359375 L 1.734375 -2.234375 C 1.734375 -1.796875 1.851562 -1.4375 2.09375 -1.15625 C 2.332031 -0.875 2.648438 -0.734375 3.046875 -0.734375 C 3.429688 -0.734375 3.742188 -0.875 3.984375 -1.15625 C 4.222656 -1.4375 4.34375 -1.796875 4.34375 -2.234375 Z M 4.34375 -7.359375 "/></g></g></g><g fill="#ffffff" fill-opacity="1"><g transform="translate(212.695093, 344.654191)"><g><path d="M 3.25 0.109375 C 2.539062 0.109375 1.972656 -0.128906 1.546875 -0.609375 C 1.117188 -1.097656 0.90625 -1.738281 0.90625 -2.53125 L 0.90625 -9.453125 C 0.90625 -9.546875 0.953125 -9.59375 1.046875 -9.59375 L 1.734375 -9.59375 C 1.828125 -9.59375 1.875 -9.546875 1.875 -9.453125 L 1.875 -2.421875 C 1.875 -1.921875 2 -1.515625 2.25 -1.203125 C 2.5 -0.890625 2.832031 -0.734375 3.25 -0.734375 C 3.664062 -0.734375 4 -0.890625 4.25 -1.203125 C 4.507812 -1.515625 4.640625 -1.921875 4.640625 -2.421875 L 4.640625 -9.453125 C 4.640625 -9.546875 4.6875 -9.59375 4.78125 -9.59375 L 5.484375 -9.59375 C 5.578125 -9.59375 5.625 -9.546875 5.625 -9.453125 L 5.625 -2.53125 C 5.625 -1.738281 5.40625 -1.097656 4.96875 -0.609375 C 4.53125 -0.128906 3.957031 0.109375 3.25 0.109375 Z M 3.25 0.109375 "/></g></g></g><g fill="#ffffff" fill-opacity="1"><g transform="translate(219.215557, 344.654191)"><g><path d="M 5.328125 -8.875 C 5.328125 -8.789062 5.28125 -8.75 5.1875 -8.75 L 2.015625 -8.75 C 1.972656 -8.75 1.953125 -8.726562 1.953125 -8.6875 L 1.953125 -5.296875 C 1.953125 -5.253906 1.972656 -5.234375 2.015625 -5.234375 L 4.015625 -5.234375 C 4.109375 -5.234375 4.15625 -5.1875 4.15625 -5.09375 L 4.15625 -4.515625 C 4.15625 -4.421875 4.109375 -4.375 4.015625 -4.375 L 2.015625 -4.375 C 1.972656 -4.375 1.953125 -4.351562 1.953125 -4.3125 L 1.953125 -0.90625 C 1.953125 -0.863281 1.972656 -0.84375 2.015625 -0.84375 L 5.1875 -0.84375 C 5.28125 -0.84375 5.328125 -0.800781 5.328125 -0.71875 L 5.328125 -0.140625 C 5.328125 -0.046875 5.28125 0 5.1875 0 L 1.125 0 C 1.03125 0 0.984375 -0.046875 0.984375 -0.140625 L 0.984375 -9.453125 C 0.984375 -9.546875 1.03125 -9.59375 1.125 -9.59375 L 5.1875 -9.59375 C 5.28125 -9.59375 5.328125 -9.546875 5.328125 -9.453125 Z M 5.328125 -8.875 "/></g></g></g><g fill="#ffffff" fill-opacity="1"><g transform="translate(225.092196, 344.654191)"><g/></g></g><g fill="#ffffff" fill-opacity="1"><g transform="translate(227.831892, 344.654191)"><g><path d="M 5.1875 -9.59375 C 5.28125 -9.59375 5.328125 -9.546875 5.328125 -9.453125 L 5.328125 -8.875 C 5.328125 -8.789062 5.28125 -8.75 5.1875 -8.75 L 3.390625 -8.75 C 3.347656 -8.75 3.328125 -8.726562 3.328125 -8.6875 L 3.328125 -0.140625 C 3.328125 -0.046875 3.28125 0 3.1875 0 L 2.5 0 C 2.40625 0 2.359375 -0.046875 2.359375 -0.140625 L 2.359375 -8.6875 C 2.359375 -8.726562 2.335938 -8.75 2.296875 -8.75 L 0.609375 -8.75 C 0.515625 -8.75 0.46875 -8.789062 0.46875 -8.875 L 0.46875 -9.453125 C 0.46875 -9.546875 0.515625 -9.59375 0.609375 -9.59375 Z M 5.1875 -9.59375 "/></g></g></g><g fill="#ffffff" fill-opacity="1"><g transform="translate(233.626347, 344.654191)"><g><path d="M 1.125 0 C 1.03125 0 0.984375 -0.046875 0.984375 -0.140625 L 0.984375 -9.453125 C 0.984375 -9.546875 1.03125 -9.59375 1.125 -9.59375 L 1.828125 -9.59375 C 1.910156 -9.59375 1.953125 -9.546875 1.953125 -9.453125 L 1.953125 -0.140625 C 1.953125 -0.046875 1.910156 0 1.828125 0 Z M 1.125 0 "/></g></g></g><g fill="#ffffff" fill-opacity="1"><g transform="translate(236.571511, 344.654191)"><g><path d="M 5.171875 -9.5 C 5.191406 -9.5625 5.242188 -9.59375 5.328125 -9.59375 L 6.046875 -9.59375 C 6.140625 -9.59375 6.1875 -9.546875 6.1875 -9.453125 L 6.1875 -0.140625 C 6.1875 -0.046875 6.140625 0 6.046875 0 L 5.34375 0 C 5.25 0 5.203125 -0.046875 5.203125 -0.140625 L 5.203125 -7.484375 C 5.203125 -7.503906 5.195312 -7.515625 5.1875 -7.515625 C 5.175781 -7.515625 5.160156 -7.507812 5.140625 -7.5 L 3.71875 -4.53125 C 3.6875 -4.46875 3.640625 -4.4375 3.578125 -4.4375 C 3.503906 -4.4375 3.453125 -4.46875 3.421875 -4.53125 L 2 -7.484375 C 1.976562 -7.503906 1.960938 -7.515625 1.953125 -7.515625 C 1.941406 -7.515625 1.9375 -7.5 1.9375 -7.46875 L 1.9375 -0.140625 C 1.9375 -0.046875 1.890625 0 1.796875 0 L 1.09375 0 C 1 0 0.953125 -0.046875 0.953125 -0.140625 L 0.953125 -9.453125 C 0.953125 -9.546875 1 -9.59375 1.09375 -9.59375 L 1.8125 -9.59375 C 1.894531 -9.59375 1.945312 -9.5625 1.96875 -9.5 L 3.53125 -6.328125 C 3.539062 -6.304688 3.554688 -6.296875 3.578125 -6.296875 C 3.597656 -6.296875 3.613281 -6.304688 3.625 -6.328125 Z M 5.171875 -9.5 "/></g></g></g><g fill="#ffffff" fill-opacity="1"><g transform="translate(243.708406, 344.654191)"><g><path d="M 5.328125 -8.875 C 5.328125 -8.789062 5.28125 -8.75 5.1875 -8.75 L 2.015625 -8.75 C 1.972656 -8.75 1.953125 -8.726562 1.953125 -8.6875 L 1.953125 -5.296875 C 1.953125 -5.253906 1.972656 -5.234375 2.015625 -5.234375 L 4.015625 -5.234375 C 4.109375 -5.234375 4.15625 -5.1875 4.15625 -5.09375 L 4.15625 -4.515625 C 4.15625 -4.421875 4.109375 -4.375 4.015625 -4.375 L 2.015625 -4.375 C 1.972656 -4.375 1.953125 -4.351562 1.953125 -4.3125 L 1.953125 -0.90625 C 1.953125 -0.863281 1.972656 -0.84375 2.015625 -0.84375 L 5.1875 -0.84375 C 5.28125 -0.84375 5.328125 -0.800781 5.328125 -0.71875 L 5.328125 -0.140625 C 5.328125 -0.046875 5.28125 0 5.1875 0 L 1.125 0 C 1.03125 0 0.984375 -0.046875 0.984375 -0.140625 L 0.984375 -9.453125 C 0.984375 -9.546875 1.03125 -9.59375 1.125 -9.59375 L 5.1875 -9.59375 C 5.28125 -9.59375 5.328125 -9.546875 5.328125 -9.453125 Z M 5.328125 -8.875 "/></g></g></g><g fill="#ffffff" fill-opacity="1"><g transform="translate(249.585045, 344.654191)"><g><path d="M 4.828125 0 C 4.742188 0 4.6875 -0.0351562 4.65625 -0.109375 L 3.265625 -4.34375 C 3.253906 -4.375 3.234375 -4.390625 3.203125 -4.390625 L 2.015625 -4.390625 C 1.972656 -4.390625 1.953125 -4.367188 1.953125 -4.328125 L 1.953125 -0.140625 C 1.953125 -0.046875 1.910156 0 1.828125 0 L 1.125 0 C 1.03125 0 0.984375 -0.046875 0.984375 -0.140625 L 0.984375 -9.453125 C 0.984375 -9.546875 1.03125 -9.59375 1.125 -9.59375 L 3.390625 -9.59375 C 4.054688 -9.59375 4.59375 -9.347656 5 -8.859375 C 5.414062 -8.367188 5.625 -7.734375 5.625 -6.953125 C 5.625 -6.359375 5.492188 -5.84375 5.234375 -5.40625 C 4.972656 -4.976562 4.625 -4.679688 4.1875 -4.515625 C 4.15625 -4.503906 4.144531 -4.476562 4.15625 -4.4375 L 5.640625 -0.15625 L 5.65625 -0.09375 C 5.65625 -0.03125 5.613281 0 5.53125 0 Z M 2.015625 -8.75 C 1.972656 -8.75 1.953125 -8.726562 1.953125 -8.6875 L 1.953125 -5.21875 C 1.953125 -5.1875 1.972656 -5.171875 2.015625 -5.171875 L 3.25 -5.171875 C 3.664062 -5.171875 4 -5.332031 4.25 -5.65625 C 4.507812 -5.976562 4.640625 -6.410156 4.640625 -6.953125 C 4.640625 -7.484375 4.507812 -7.914062 4.25 -8.25 C 4 -8.582031 3.664062 -8.75 3.25 -8.75 Z M 2.015625 -8.75 "/></g></g></g><g fill="#ffffff" fill-opacity="1"><g transform="translate(132.523179, 325.186081)"><g><path d="M 1.1875 0 L 1.1875 -26.90625 L 11.96875 -26.90625 L 11.96875 -21.671875 L 6.609375 -21.671875 L 6.609375 -17.390625 L 11.6875 -17.390625 L 11.6875 -12.21875 L 6.609375 -12.21875 L 6.609375 0 Z M 1.1875 0 "/></g></g></g><g clip-path="url(#f682f94983)"><path fill="#f51039" d="M 155.796875 306.289062 C 158.226562 306.289062 160.421875 307.273438 162.015625 308.867188 C 163.605469 310.457031 164.589844 312.65625 164.589844 315.085938 C 164.589844 317.511719 163.605469 319.710938 162.015625 321.304688 C 160.421875 322.894531 158.226562 323.878906 155.796875 323.878906 C 153.367188 323.878906 151.167969 322.894531 149.578125 321.304688 C 147.984375 319.710938 147 317.511719 147 315.085938 C 147 312.65625 147.984375 310.457031 149.578125 308.867188 C 151.167969 307.273438 153.367188 306.289062 155.796875 306.289062 Z M 160.617188 310.265625 C 159.382812 309.03125 157.679688 308.269531 155.796875 308.269531 C 153.914062 308.269531 152.210938 309.03125 150.976562 310.265625 C 149.742188 311.5 148.980469 313.203125 148.980469 315.085938 C 148.980469 316.96875 149.742188 318.671875 150.976562 319.90625 C 152.210938 321.140625 153.914062 321.902344 155.796875 321.902344 C 157.679688 321.902344 159.382812 321.140625 160.617188 319.90625 C 161.851562 318.671875 162.613281 316.96875 162.613281 315.085938 C 162.613281 313.203125 161.851562 311.5 160.617188 310.265625 Z M 155.796875 312.902344 C 157.003906 312.902344 157.980469 313.878906 157.980469 315.085938 C 157.980469 316.292969 157.003906 317.269531 155.796875 317.269531 C 154.589844 317.269531 153.613281 316.292969 153.613281 315.085938 C 153.613281 313.878906 154.589844 312.902344 155.796875 312.902344 Z M 155.796875 309.585938 C 157.316406 309.585938 158.6875 310.203125 159.683594 311.199219 C 160.679688 312.191406 161.292969 313.566406 161.292969 315.085938 C 161.292969 316.601562 160.679688 317.976562 159.683594 318.972656 C 158.6875 319.96875 157.316406 320.582031 155.796875 320.582031 C 154.277344 320.582031 152.902344 319.96875 151.910156 318.972656 C 150.914062 317.976562 150.296875 316.601562 150.296875 315.085938 C 150.296875 313.566406 150.914062 312.191406 151.910156 311.199219 C 152.902344 310.203125 154.277344 309.585938 155.796875 309.585938 Z M 158.285156 312.597656 C 157.648438 311.960938 156.769531 311.566406 155.796875 311.566406 C 154.824219 311.566406 153.945312 311.960938 153.308594 312.597656 C 152.671875 313.234375 152.277344 314.113281 152.277344 315.085938 C 152.277344 316.058594 152.671875 316.9375 153.308594 317.574219 C 153.945312 318.210938 154.824219 318.605469 155.796875 318.605469 C 156.769531 318.605469 157.648438 318.210938 158.285156 317.574219 C 158.921875 316.9375 159.316406 316.058594 159.316406 315.085938 C 159.316406 314.113281 158.921875 313.234375 158.285156 312.597656 Z M 158.285156 312.597656 " fill-opacity="1" fill-rule="nonzero"/></g><g clip-path="url(#c9dd967a04)"><path fill="#ffffff" d="M 162.503906 307.796875 L 162.945312 307.171875 C 163.070312 307.011719 163.007812 306.761719 162.851562 306.636719 L 161.15625 305.476562 C 161 305.351562 160.75 305.414062 160.625 305.570312 L 160.1875 306.199219 C 159.433594 305.820312 158.585938 305.539062 157.742188 305.382812 L 157.742188 304.441406 L 153.980469 304.441406 L 153.980469 305.382812 C 149.433594 306.261719 145.988281 310.273438 145.988281 315.070312 C 145.988281 320.523438 150.40625 324.941406 155.859375 324.941406 C 161.316406 324.941406 165.734375 320.523438 165.734375 315.070312 C 165.734375 312.214844 164.480469 309.613281 162.503906 307.796875 Z M 155.859375 323.71875 C 151.097656 323.71875 147.210938 319.863281 147.210938 315.070312 C 147.210938 310.304688 151.066406 306.417969 155.859375 306.417969 C 160.65625 306.417969 164.511719 310.273438 164.511719 315.070312 C 164.511719 319.863281 160.625 323.71875 155.859375 323.71875 Z M 155.859375 323.71875 " fill-opacity="1" fill-rule="nonzero"/></g><path fill="#ffffff" d="M 155.828125 306.980469 L 155.984375 306.980469 L 155.984375 308.359375 L 155.828125 308.359375 Z M 155.828125 306.980469 " fill-opacity="1" fill-rule="nonzero"/><path fill="#ffffff" d="M 151.765625 308.121094 L 151.902344 308.042969 L 152.589844 309.234375 L 152.457031 309.316406 Z M 151.765625 308.121094 " fill-opacity="1" fill-rule="nonzero"/><path fill="#ffffff" d="M 148.816406 311.109375 L 148.894531 310.972656 L 150.089844 311.660156 L 150.011719 311.796875 Z M 148.816406 311.109375 " fill-opacity="1" fill-rule="nonzero"/><path fill="#ffffff" d="M 147.773438 314.972656 L 149.152344 314.972656 L 149.152344 315.132812 L 147.773438 315.132812 Z M 147.773438 314.972656 " fill-opacity="1" fill-rule="nonzero"/><path fill="#ffffff" d="M 148.800781 319.0625 L 149.996094 318.371094 L 150.074219 318.507812 L 148.882812 319.199219 Z M 148.800781 319.0625 " fill-opacity="1" fill-rule="nonzero"/><path fill="#ffffff" d="M 151.710938 322.03125 L 152.398438 320.835938 L 152.535156 320.914062 L 151.84375 322.109375 Z M 151.710938 322.03125 " fill-opacity="1" fill-rule="nonzero"/><path fill="#ffffff" d="M 155.765625 321.808594 L 155.921875 321.808594 L 155.921875 323.1875 L 155.765625 323.1875 Z M 155.765625 321.808594 " fill-opacity="1" fill-rule="nonzero"/><path fill="#ffffff" d="M 159.132812 320.964844 L 159.269531 320.886719 L 159.957031 322.082031 L 159.824219 322.160156 Z M 159.132812 320.964844 " fill-opacity="1" fill-rule="nonzero"/><path fill="#ffffff" d="M 161.644531 318.546875 L 161.722656 318.410156 L 162.917969 319.101562 L 162.839844 319.238281 Z M 161.644531 318.546875 " fill-opacity="1" fill-rule="nonzero"/><path fill="#ffffff" d="M 162.566406 315.039062 L 163.949219 315.039062 L 163.949219 315.195312 L 162.566406 315.195312 Z M 162.566406 315.039062 " fill-opacity="1" fill-rule="nonzero"/><path fill="#ffffff" d="M 161.648438 311.695312 L 162.84375 311.003906 L 162.921875 311.140625 L 161.726562 311.832031 Z M 161.648438 311.695312 " fill-opacity="1" fill-rule="nonzero"/><path fill="#ffffff" d="M 159.175781 309.25 L 159.863281 308.054688 L 160 308.132812 L 159.308594 309.328125 Z M 159.175781 309.25 " fill-opacity="1" fill-rule="nonzero"/><path fill="#ffffff" d="M 156.082031 314.066406 L 156.082031 311.371094 L 156.550781 311.371094 L 155.859375 310.148438 L 155.171875 311.371094 L 155.640625 311.371094 L 155.640625 314.066406 C 155.171875 314.160156 154.828125 314.597656 154.828125 315.070312 C 154.828125 315.632812 155.296875 316.101562 155.859375 316.101562 C 156.425781 316.101562 156.894531 315.632812 156.894531 315.070312 C 156.894531 314.597656 156.550781 314.191406 156.082031 314.066406 Z M 156.082031 314.066406 " fill-opacity="1" fill-rule="nonzero"/><g clip-path="url(#551e98705e)"><path fill="#ffffff" d="M 153.226562 304.222656 L 158.460938 304.222656 C 158.683594 304.222656 158.839844 304.066406 158.839844 303.847656 L 158.839844 302.6875 C 158.839844 302.46875 158.683594 302.3125 158.460938 302.3125 L 153.226562 302.3125 C 153.007812 302.3125 152.851562 302.46875 152.851562 302.6875 L 152.851562 303.847656 C 152.851562 304.066406 153.039062 304.222656 153.226562 304.222656 Z M 153.226562 304.222656 " fill-opacity="1" fill-rule="nonzero"/></g><g fill="#ffffff" fill-opacity="1"><g transform="translate(166.574163, 325.186081)"><g><path d="M 7.453125 0.25 C 5.492188 0.25 3.921875 -0.363281 2.734375 -1.59375 C 1.554688 -2.832031 0.96875 -4.523438 0.96875 -6.671875 L 0.96875 -19.078125 C 0.96875 -21.753906 1.5 -23.769531 2.5625 -25.125 C 3.632812 -26.476562 5.304688 -27.15625 7.578125 -27.15625 C 9.566406 -27.15625 11.164062 -26.613281 12.375 -25.53125 C 13.582031 -24.445312 14.1875 -22.878906 14.1875 -20.828125 L 14.1875 -16.203125 L 8.828125 -16.203125 L 8.828125 -20.171875 C 8.828125 -20.941406 8.734375 -21.472656 8.546875 -21.765625 C 8.359375 -22.066406 8.035156 -22.21875 7.578125 -22.21875 C 7.097656 -22.21875 6.769531 -22.046875 6.59375 -21.703125 C 6.414062 -21.367188 6.328125 -20.878906 6.328125 -20.234375 L 6.328125 -6.734375 C 6.328125 -6.023438 6.429688 -5.507812 6.640625 -5.1875 C 6.847656 -4.863281 7.160156 -4.703125 7.578125 -4.703125 C 8.410156 -4.703125 8.828125 -5.378906 8.828125 -6.734375 L 8.828125 -11.59375 L 14.25 -11.59375 L 14.25 -6.515625 C 14.25 -2.003906 11.984375 0.25 7.453125 0.25 Z M 7.453125 0.25 "/></g></g></g><g fill="#ffffff" fill-opacity="1"><g transform="translate(181.424461, 325.186081)"><g><path d="M 7.421875 0.25 C 5.210938 0.25 3.566406 -0.375 2.484375 -1.625 C 1.410156 -2.882812 0.875 -4.742188 0.875 -7.203125 L 0.875 -26.90625 L 6.109375 -26.90625 L 6.109375 -7.421875 C 6.109375 -6.566406 6.191406 -5.898438 6.359375 -5.421875 C 6.523438 -4.941406 6.878906 -4.703125 7.421875 -4.703125 C 7.960938 -4.703125 8.316406 -4.9375 8.484375 -5.40625 C 8.648438 -5.875 8.734375 -6.546875 8.734375 -7.421875 L 8.734375 -26.90625 L 13.96875 -26.90625 L 13.96875 -7.203125 C 13.96875 -4.742188 13.429688 -2.882812 12.359375 -1.625 C 11.285156 -0.375 9.640625 0.25 7.421875 0.25 Z M 7.421875 0.25 "/></g></g></g><g fill="#ffffff" fill-opacity="1"><g transform="translate(196.274758, 325.186081)"><g><path d="M 7.578125 0.25 C 5.140625 0.25 3.375 -0.351562 2.28125 -1.5625 C 1.195312 -2.78125 0.65625 -4.734375 0.65625 -7.421875 L 0.65625 -10.0625 L 5.953125 -10.0625 L 5.953125 -6.703125 C 5.953125 -5.367188 6.378906 -4.703125 7.234375 -4.703125 C 7.710938 -4.703125 8.046875 -4.84375 8.234375 -5.125 C 8.421875 -5.40625 8.515625 -5.878906 8.515625 -6.546875 C 8.515625 -7.421875 8.410156 -8.144531 8.203125 -8.71875 C 7.992188 -9.300781 7.726562 -9.785156 7.40625 -10.171875 C 7.082031 -10.554688 6.503906 -11.15625 5.671875 -11.96875 L 3.359375 -14.28125 C 1.554688 -16.039062 0.65625 -17.984375 0.65625 -20.109375 C 0.65625 -22.410156 1.179688 -24.160156 2.234375 -25.359375 C 3.296875 -26.554688 4.835938 -27.15625 6.859375 -27.15625 C 9.285156 -27.15625 11.03125 -26.515625 12.09375 -25.234375 C 13.15625 -23.953125 13.6875 -21.941406 13.6875 -19.203125 L 8.203125 -19.203125 L 8.171875 -21.046875 C 8.171875 -21.398438 8.070312 -21.679688 7.875 -21.890625 C 7.675781 -22.109375 7.398438 -22.21875 7.046875 -22.21875 C 6.628906 -22.21875 6.316406 -22.097656 6.109375 -21.859375 C 5.898438 -21.628906 5.796875 -21.316406 5.796875 -20.921875 C 5.796875 -20.046875 6.296875 -19.140625 7.296875 -18.203125 L 10.4375 -15.1875 C 11.164062 -14.476562 11.769531 -13.804688 12.25 -13.171875 C 12.726562 -12.535156 13.113281 -11.785156 13.40625 -10.921875 C 13.695312 -10.054688 13.84375 -9.023438 13.84375 -7.828125 C 13.84375 -5.179688 13.359375 -3.171875 12.390625 -1.796875 C 11.421875 -0.429688 9.816406 0.25 7.578125 0.25 Z M 7.578125 0.25 "/></g></g></g><g fill="#ffffff" fill-opacity="1"><g transform="translate(210.717777, 325.186081)"><g><path d="M 0.9375 0 L 0.9375 -26.90625 L 6.140625 -26.90625 L 6.140625 0 Z M 0.9375 0 "/></g></g></g><g fill="#ffffff" fill-opacity="1"><g transform="translate(217.829629, 325.186081)"><g><path d="M 1.1875 0 L 1.1875 -26.90625 L 11.96875 -26.90625 L 11.96875 -21.671875 L 6.609375 -21.671875 L 6.609375 -17.390625 L 11.6875 -17.390625 L 11.6875 -12.21875 L 6.609375 -12.21875 L 6.609375 0 Z M 1.1875 0 "/></g></g></g><g fill="#ffffff" fill-opacity="1"><g transform="translate(230.330198, 325.186081)"><g><path d="M 4.453125 0 L 4.453125 -8.859375 L 0.15625 -26.90625 L 5.484375 -26.90625 L 6.984375 -17.796875 L 8.484375 -26.90625 L 13.8125 -26.90625 L 9.53125 -8.859375 L 9.53125 0 Z M 4.453125 0 "/></g></g></g></svg>